<svg width="108" height="31" viewBox="0 0 108 31" fill="none" xmlns="http://www.w3.org/2000/svg">
<path d="M4.14601 27.9257C3.96303 27.8455 3.81097 27.7043 3.71383 27.5244C3.61669 27.3445 3.57999 27.1361 3.60953 26.9322L5.23685 15.9287H0.918182C0.781268 15.9326 0.645337 15.9037 0.520878 15.8443C0.396418 15.7849 0.286758 15.6966 0.200357 15.5863C0.113956 15.4759 0.0531238 15.3464 0.0225547 15.2077C-0.00801446 15.0691 -0.00750352 14.925 0.0240478 14.7866L2.70645 2.71532C2.75365 2.50758 2.86833 2.32306 3.03118 2.19283C3.19404 2.06261 3.39512 1.99463 3.60059 2.00033H12.5419C12.6755 1.99986 12.8075 2.03048 12.9282 2.08993C13.0489 2.14939 13.1552 2.23617 13.2394 2.3439C13.3247 2.45285 13.3851 2.58048 13.4161 2.7172C13.4471 2.85391 13.4478 2.99614 13.4182 3.13317L11.8713 10.3574H16.1185C16.286 10.357 16.4503 10.4056 16.5926 10.4975C16.7349 10.5895 16.8495 10.7211 16.9232 10.8774C16.9873 11.0274 17.0119 11.1923 16.9946 11.3554C16.9774 11.5185 16.9188 11.674 16.8248 11.8059L5.20109 27.5914C5.12253 27.7124 5.01764 27.8124 4.89491 27.8834C4.77219 27.9544 4.63509 27.9943 4.49472 28C4.37508 27.9977 4.25687 27.9725 4.14601 27.9257ZM9.63599 12.2145L11.4243 3.85745H4.31589L2.04479 14.0716H7.32913L5.90745 23.6172L14.3302 12.2145H9.63599Z" fill="#886654"/>
<path d="M24.508 10.668H27.268V12H22.828V3.624H24.508V10.668ZM29.1878 4.56C28.8918 4.56 28.6438 4.468 28.4438 4.284C28.2518 4.092 28.1558 3.856 28.1558 3.576C28.1558 3.296 28.2518 3.064 28.4438 2.88C28.6438 2.688 28.8918 2.592 29.1878 2.592C29.4838 2.592 29.7278 2.688 29.9198 2.88C30.1198 3.064 30.2198 3.296 30.2198 3.576C30.2198 3.856 30.1198 4.092 29.9198 4.284C29.7278 4.468 29.4838 4.56 29.1878 4.56ZM30.0158 5.352V12H28.3358V5.352H30.0158ZM34.2797 5.244C34.7757 5.244 35.2117 5.344 35.5877 5.544C35.9637 5.736 36.2597 5.988 36.4757 6.3V5.352H38.1677V12.048C38.1677 12.664 38.0437 13.212 37.7957 13.692C37.5477 14.18 37.1757 14.564 36.6797 14.844C36.1837 15.132 35.5837 15.276 34.8797 15.276C33.9357 15.276 33.1597 15.056 32.5517 14.616C31.9517 14.176 31.6117 13.576 31.5317 12.816H33.1997C33.2877 13.12 33.4757 13.36 33.7637 13.536C34.0597 13.72 34.4157 13.812 34.8317 13.812C35.3197 13.812 35.7157 13.664 36.0197 13.368C36.3237 13.08 36.4757 12.64 36.4757 12.048V11.016C36.2597 11.328 35.9597 11.588 35.5757 11.796C35.1997 12.004 34.7677 12.108 34.2797 12.108C33.7197 12.108 33.2077 11.964 32.7437 11.676C32.2797 11.388 31.9117 10.984 31.6397 10.464C31.3757 9.936 31.2437 9.332 31.2437 8.652C31.2437 7.98 31.3757 7.384 31.6397 6.864C31.9117 6.344 32.2757 5.944 32.7317 5.664C33.1957 5.384 33.7117 5.244 34.2797 5.244ZM36.4757 8.676C36.4757 8.268 36.3957 7.92 36.2357 7.632C36.0757 7.336 35.8597 7.112 35.5877 6.96C35.3157 6.8 35.0237 6.72 34.7117 6.72C34.3997 6.72 34.1117 6.796 33.8477 6.948C33.5837 7.1 33.3677 7.324 33.1997 7.62C33.0397 7.908 32.9597 8.252 32.9597 8.652C32.9597 9.052 33.0397 9.404 33.1997 9.708C33.3677 10.004 33.5837 10.232 33.8477 10.392C34.1197 10.552 34.4077 10.632 34.7117 10.632C35.0237 10.632 35.3157 10.556 35.5877 10.404C35.8597 10.244 36.0757 10.02 36.2357 9.732C36.3957 9.436 36.4757 9.084 36.4757 8.676ZM43.5525 5.256C44.0565 5.256 44.5045 5.368 44.8965 5.592C45.2885 5.808 45.5925 6.132 45.8085 6.564C46.0325 6.988 46.1445 7.5 46.1445 8.1V12H44.4645V8.328C44.4645 7.8 44.3325 7.396 44.0685 7.116C43.8045 6.828 43.4445 6.684 42.9885 6.684C42.5245 6.684 42.1565 6.828 41.8845 7.116C41.6205 7.396 41.4885 7.8 41.4885 8.328V12H39.8085V3.12H41.4885V6.18C41.7045 5.892 41.9925 5.668 42.3525 5.508C42.7125 5.34 43.1125 5.256 43.5525 5.256ZM49.6981 6.732V9.948C49.6981 10.172 49.7501 10.336 49.8541 10.44C49.9661 10.536 50.1501 10.584 50.4061 10.584H51.1861V12H50.1301C48.7141 12 48.0061 11.312 48.0061 9.936V6.732H47.2141V5.352H48.0061V3.708H49.6981V5.352H51.1861V6.732H49.6981ZM56.0784 5.256C56.8704 5.256 57.5104 5.508 57.9984 6.012C58.4864 6.508 58.7304 7.204 58.7304 8.1V12H57.0504V8.328C57.0504 7.8 56.9184 7.396 56.6544 7.116C56.3904 6.828 56.0304 6.684 55.5744 6.684C55.1104 6.684 54.7424 6.828 54.4704 7.116C54.2064 7.396 54.0744 7.8 54.0744 8.328V12H52.3944V5.352H54.0744V6.18C54.2984 5.892 54.5824 5.668 54.9264 5.508C55.2784 5.34 55.6624 5.256 56.0784 5.256ZM61.18 4.56C60.884 4.56 60.636 4.468 60.436 4.284C60.244 4.092 60.148 3.856 60.148 3.576C60.148 3.296 60.244 3.064 60.436 2.88C60.636 2.688 60.884 2.592 61.18 2.592C61.476 2.592 61.72 2.688 61.912 2.88C62.112 3.064 62.212 3.296 62.212 3.576C62.212 3.856 62.112 4.092 61.912 4.284C61.72 4.468 61.476 4.56 61.18 4.56ZM62.008 5.352V12H60.328V5.352H62.008ZM67.3518 5.256C68.1438 5.256 68.7838 5.508 69.2718 6.012C69.7598 6.508 70.0038 7.204 70.0038 8.1V12H68.3238V8.328C68.3238 7.8 68.1918 7.396 67.9278 7.116C67.6638 6.828 67.3038 6.684 66.8478 6.684C66.3838 6.684 66.0158 6.828 65.7438 7.116C65.4798 7.396 65.3478 7.8 65.3478 8.328V12H63.6678V5.352H65.3478V6.18C65.5718 5.892 65.8558 5.668 66.1998 5.508C66.5518 5.34 66.9358 5.256 67.3518 5.256ZM74.2054 5.244C74.7014 5.244 75.1374 5.344 75.5134 5.544C75.8894 5.736 76.1854 5.988 76.4014 6.3V5.352H78.0934V12.048C78.0934 12.664 77.9694 13.212 77.7214 13.692C77.4734 14.18 77.1014 14.564 76.6054 14.844C76.1094 15.132 75.5094 15.276 74.8054 15.276C73.8614 15.276 73.0854 15.056 72.4774 14.616C71.8774 14.176 71.5374 13.576 71.4574 12.816H73.1254C73.2134 13.12 73.4014 13.36 73.6894 13.536C73.9854 13.72 74.3414 13.812 74.7574 13.812C75.2454 13.812 75.6414 13.664 75.9454 13.368C76.2494 13.08 76.4014 12.64 76.4014 12.048V11.016C76.1854 11.328 75.8854 11.588 75.5014 11.796C75.1254 12.004 74.6934 12.108 74.2054 12.108C73.6454 12.108 73.1334 11.964 72.6694 11.676C72.2054 11.388 71.8374 10.984 71.5654 10.464C71.3014 9.936 71.1694 9.332 71.1694 8.652C71.1694 7.98 71.3014 7.384 71.5654 6.864C71.8374 6.344 72.2014 5.944 72.6574 5.664C73.1214 5.384 73.6374 5.244 74.2054 5.244ZM76.4014 8.676C76.4014 8.268 76.3214 7.92 76.1614 7.632C76.0014 7.336 75.7854 7.112 75.5134 6.96C75.2414 6.8 74.9494 6.72 74.6374 6.72C74.3254 6.72 74.0374 6.796 73.7734 6.948C73.5094 7.1 73.2934 7.324 73.1254 7.62C72.9654 7.908 72.8854 8.252 72.8854 8.652C72.8854 9.052 72.9654 9.404 73.1254 9.708C73.2934 10.004 73.5094 10.232 73.7734 10.392C74.0454 10.552 74.3334 10.632 74.6374 10.632C74.9494 10.632 75.2414 10.556 75.5134 10.404C75.7854 10.244 76.0014 10.02 76.1614 9.732C76.3214 9.436 76.4014 9.084 76.4014 8.676ZM87.7656 3.624V4.98H84.2736V7.128H86.9496V8.46H84.2736V12H82.5936V3.624H87.7656ZM88.5249 8.652C88.5249 7.98 88.6569 7.384 88.9209 6.864C89.1929 6.344 89.5569 5.944 90.0129 5.664C90.4769 5.384 90.9929 5.244 91.5609 5.244C92.0569 5.244 92.4889 5.344 92.8569 5.544C93.2329 5.744 93.5329 5.996 93.7569 6.3V5.352H95.4489V12H93.7569V11.028C93.5409 11.34 93.2409 11.6 92.8569 11.808C92.4809 12.008 92.0449 12.108 91.5489 12.108C90.9889 12.108 90.4769 11.964 90.0129 11.676C89.5569 11.388 89.1929 10.984 88.9209 10.464C88.6569 9.936 88.5249 9.332 88.5249 8.652ZM93.7569 8.676C93.7569 8.268 93.6769 7.92 93.5169 7.632C93.3569 7.336 93.1409 7.112 92.8689 6.96C92.5969 6.8 92.3049 6.72 91.9929 6.72C91.6809 6.72 91.3929 6.796 91.1289 6.948C90.8649 7.1 90.6489 7.324 90.4809 7.62C90.3209 7.908 90.2409 8.252 90.2409 8.652C90.2409 9.052 90.3209 9.404 90.4809 9.708C90.6489 10.004 90.8649 10.232 91.1289 10.392C91.4009 10.552 91.6889 10.632 91.9929 10.632C92.3049 10.632 92.5969 10.556 92.8689 10.404C93.1409 10.244 93.3569 10.02 93.5169 9.732C93.6769 9.436 93.7569 9.084 93.7569 8.676ZM99.6337 12.108C99.0897 12.108 98.6017 12.012 98.1697 11.82C97.7377 11.62 97.3937 11.352 97.1377 11.016C96.8897 10.68 96.7537 10.308 96.7297 9.9H98.4217C98.4537 10.156 98.5777 10.368 98.7937 10.536C99.0177 10.704 99.2937 10.788 99.6217 10.788C99.9417 10.788 100.19 10.724 100.366 10.596C100.55 10.468 100.642 10.304 100.642 10.104C100.642 9.888 100.53 9.728 100.306 9.624C100.09 9.512 99.7417 9.392 99.2617 9.264C98.7657 9.144 98.3577 9.02 98.0377 8.892C97.7257 8.764 97.4537 8.568 97.2217 8.304C96.9977 8.04 96.8857 7.684 96.8857 7.236C96.8857 6.868 96.9897 6.532 97.1977 6.228C97.4137 5.924 97.7177 5.684 98.1097 5.508C98.5097 5.332 98.9777 5.244 99.5137 5.244C100.306 5.244 100.938 5.444 101.41 5.844C101.882 6.236 102.142 6.768 102.19 7.44H100.582C100.558 7.176 100.446 6.968 100.246 6.816C100.054 6.656 99.7937 6.576 99.4657 6.576C99.1617 6.576 98.9257 6.632 98.7577 6.744C98.5977 6.856 98.5177 7.012 98.5177 7.212C98.5177 7.436 98.6297 7.608 98.8537 7.728C99.0777 7.84 99.4257 7.956 99.8977 8.076C100.378 8.196 100.774 8.32 101.086 8.448C101.398 8.576 101.666 8.776 101.89 9.048C102.122 9.312 102.242 9.664 102.25 10.104C102.25 10.488 102.142 10.832 101.926 11.136C101.718 11.44 101.414 11.68 101.014 11.856C100.622 12.024 100.162 12.108 99.6337 12.108ZM105.585 6.732V9.948C105.585 10.172 105.637 10.336 105.741 10.44C105.853 10.536 106.037 10.584 106.293 10.584H107.073V12H106.017C104.601 12 103.893 11.312 103.893 9.936V6.732H103.101V5.352H103.893V3.708H105.585V5.352H107.073V6.732H105.585ZM25.756 18.624C26.636 18.624 27.408 18.796 28.072 19.14C28.744 19.484 29.26 19.976 29.62 20.616C29.988 21.248 30.172 21.984 30.172 22.824C30.172 23.664 29.988 24.4 29.62 25.032C29.26 25.656 28.744 26.14 28.072 26.484C27.408 26.828 26.636 27 25.756 27H22.828V18.624H25.756ZM25.696 25.572C26.576 25.572 27.256 25.332 27.736 24.852C28.216 24.372 28.456 23.696 28.456 22.824C28.456 21.952 28.216 21.272 27.736 20.784C27.256 20.288 26.576 20.04 25.696 20.04H24.508V25.572H25.696ZM37.6096 23.532C37.6096 23.772 37.5936 23.988 37.5616 24.18H32.7016C32.7416 24.66 32.9096 25.036 33.2056 25.308C33.5016 25.58 33.8656 25.716 34.2976 25.716C34.9216 25.716 35.3656 25.448 35.6296 24.912H37.4416C37.2496 25.552 36.8816 26.08 36.3376 26.496C35.7936 26.904 35.1256 27.108 34.3336 27.108C33.6936 27.108 33.1176 26.968 32.6056 26.688C32.1016 26.4 31.7056 25.996 31.4176 25.476C31.1376 24.956 30.9976 24.356 30.9976 23.676C30.9976 22.988 31.1376 22.384 31.4176 21.864C31.6976 21.344 32.0896 20.944 32.5936 20.664C33.0976 20.384 33.6776 20.244 34.3336 20.244C34.9656 20.244 35.5296 20.38 36.0256 20.652C36.5296 20.924 36.9176 21.312 37.1896 21.816C37.4696 22.312 37.6096 22.884 37.6096 23.532ZM35.8696 23.052C35.8616 22.62 35.7056 22.276 35.4016 22.02C35.0976 21.756 34.7256 21.624 34.2856 21.624C33.8696 21.624 33.5176 21.752 33.2296 22.008C32.9496 22.256 32.7776 22.604 32.7136 23.052H35.8696ZM41.6078 25.452L43.2878 20.352H45.0758L42.6158 27H40.5758L38.1278 20.352H39.9278L41.6078 25.452ZM47.6994 18.12V27H46.0194V18.12H47.6994ZM50.2113 19.56C49.9153 19.56 49.6673 19.468 49.4673 19.284C49.2753 19.092 49.1793 18.856 49.1793 18.576C49.1793 18.296 49.2753 18.064 49.4673 17.88C49.6673 17.688 49.9153 17.592 50.2113 17.592C50.5073 17.592 50.7513 17.688 50.9433 17.88C51.1433 18.064 51.2433 18.296 51.2433 18.576C51.2433 18.856 51.1433 19.092 50.9433 19.284C50.7513 19.468 50.5073 19.56 50.2113 19.56ZM51.0393 20.352V27H49.3593V20.352H51.0393ZM55.4711 25.452L57.1511 20.352H58.9391L56.4791 27H54.4391L51.9911 20.352H53.7911L55.4711 25.452ZM66.0627 23.532C66.0627 23.772 66.0467 23.988 66.0147 24.18H61.1547C61.1947 24.66 61.3627 25.036 61.6587 25.308C61.9547 25.58 62.3187 25.716 62.7507 25.716C63.3747 25.716 63.8187 25.448 64.0827 24.912H65.8947C65.7027 25.552 65.3347 26.08 64.7907 26.496C64.2467 26.904 63.5787 27.108 62.7867 27.108C62.1467 27.108 61.5707 26.968 61.0587 26.688C60.5547 26.4 60.1587 25.996 59.8707 25.476C59.5907 24.956 59.4507 24.356 59.4507 23.676C59.4507 22.988 59.5907 22.384 59.8707 21.864C60.1507 21.344 60.5427 20.944 61.0467 20.664C61.5507 20.384 62.1307 20.244 62.7867 20.244C63.4187 20.244 63.9827 20.38 64.4787 20.652C64.9827 20.924 65.3707 21.312 65.6427 21.816C65.9227 22.312 66.0627 22.884 66.0627 23.532ZM64.3227 23.052C64.3147 22.62 64.1587 22.276 63.8547 22.02C63.5507 21.756 63.1787 21.624 62.7387 21.624C62.3227 21.624 61.9707 21.752 61.6827 22.008C61.4027 22.256 61.2307 22.604 61.1667 23.052H64.3227ZM68.9689 21.384C69.1849 21.032 69.4649 20.756 69.8089 20.556C70.1609 20.356 70.5609 20.256 71.0089 20.256V22.02H70.5649C70.0369 22.02 69.6369 22.144 69.3649 22.392C69.1009 22.64 68.9689 23.072 68.9689 23.688V27H67.2889V20.352H68.9689V21.384ZM78.5005 20.352L74.3845 30.144H72.5965L74.0365 26.832L71.3725 20.352H73.2565L74.9725 24.996L76.7125 20.352H78.5005Z" fill="#886654"/>
</svg>
