<svg width="127" height="16" viewBox="0 0 127 16" fill="none" xmlns="http://www.w3.org/2000/svg">
<path opacity="0.66" d="M1.60514 8.76799C1.91088 8.84268 2.24014 8.90668 2.59292 8.95999C2.94569 9.00268 3.33375 9.02399 3.75708 9.02399C4.4744 9.02399 5.10942 8.93331 5.66208 8.75199C6.21474 8.57068 6.67336 8.3253 7.03792 8.01599C7.41419 7.69599 7.69641 7.3333 7.88458 6.92799C8.07276 6.51199 8.16681 6.0693 8.16681 5.59999C8.16681 5.15199 8.08447 4.72532 7.91986 4.31999C7.75526 3.90399 7.50238 3.54666 7.16139 3.24799C6.83211 2.93866 6.4147 2.69332 5.90903 2.51199C5.40336 2.33066 4.80954 2.23999 4.1275 2.23999H0V13.44H1.60514V8.76799ZM1.60514 2.94399H3.45722C3.95111 2.94399 4.38621 3.02399 4.7625 3.18399C5.13877 3.34399 5.45042 3.55732 5.69736 3.82399C5.94431 4.07999 6.12655 4.37332 6.24417 4.70399C6.3735 5.02399 6.43819 5.34399 6.43819 5.66399C6.43819 5.9733 6.37942 6.28799 6.26181 6.60799C6.15597 6.9173 5.97958 7.19999 5.73264 7.45599C5.48569 7.71199 5.17405 7.91999 4.79778 8.07999C4.42148 8.23999 3.96875 8.31999 3.43958 8.31999C3.07504 8.31999 2.7399 8.3093 2.43417 8.28799C2.12843 8.25599 1.85208 8.19731 1.60514 8.11199V2.94399ZM10.8176 2.23999V13.44H12.4227V8.49599H13.1988C13.5281 8.49599 13.7986 8.52268 14.0102 8.57599C14.2337 8.6293 14.4336 8.71999 14.6099 8.84799C14.7863 8.97599 14.951 9.14131 15.1038 9.34399C15.2567 9.54668 15.439 9.79731 15.6506 10.096L17.0441 11.968C17.2205 12.2133 17.391 12.4373 17.5556 12.64C17.732 12.8427 17.9202 13.0187 18.1201 13.168C18.32 13.3067 18.5434 13.4187 18.7904 13.504C19.0491 13.5893 19.3548 13.632 19.7076 13.632C19.9663 13.632 20.178 13.6213 20.3426 13.6C20.5073 13.5787 20.6719 13.5253 20.8365 13.44V12.848C20.7777 12.8587 20.7189 12.8693 20.6601 12.88C20.6013 12.88 20.5425 12.88 20.4837 12.88C20.2367 12.88 20.0192 12.848 19.8311 12.784C19.6429 12.72 19.4666 12.6293 19.3019 12.512C19.1373 12.384 18.9785 12.2347 18.8256 12.064C18.6728 11.8827 18.5141 11.68 18.3494 11.456C17.8555 10.8053 17.4734 10.288 17.2029 9.90399C16.9324 9.50931 16.7149 9.20531 16.5502 8.99199C16.3974 8.77868 16.268 8.62399 16.1622 8.52799C16.0681 8.43199 15.9505 8.35199 15.8094 8.28799L15.633 8.20799V8.14399C16.1974 8.11199 16.6796 7.99999 17.0794 7.80799C17.491 7.61599 17.8261 7.37599 18.0848 7.08799C18.3435 6.79999 18.5317 6.49068 18.6492 6.15999C18.7669 5.81868 18.8256 5.48799 18.8256 5.16799C18.8256 4.87999 18.761 4.56532 18.6316 4.22399C18.5141 3.88266 18.3024 3.56799 17.9966 3.27999C17.7027 2.98132 17.297 2.73599 16.7795 2.54399C16.2621 2.34132 15.6095 2.23999 14.8216 2.23999H10.8176ZM12.4227 2.94399H14.2042C14.6511 2.94399 15.0509 3.00266 15.4037 3.11999C15.7683 3.23732 16.0799 3.40266 16.3385 3.61599C16.5973 3.81866 16.7913 4.06399 16.9206 4.35199C17.0617 4.63999 17.1323 4.95466 17.1323 5.29599C17.1323 5.58399 17.0677 5.8773 16.9383 6.17599C16.8207 6.46399 16.6384 6.73068 16.3915 6.97599C16.1445 7.21068 15.8388 7.40268 15.4742 7.55199C15.1215 7.7013 14.7099 7.77599 14.2395 7.77599H12.4227V2.94399ZM23.4784 2.23999V13.44H31.4511V12.56H25.0835V7.87199H30.5515V7.13599H25.0835V3.11999H31.4511V2.23999H23.4784ZM34.0892 2.23999V13.44H35.6943V8.49599H36.4704C36.7997 8.49599 37.0702 8.52268 37.2818 8.57599C37.5053 8.6293 37.7052 8.71999 37.8816 8.84799C38.0579 8.97599 38.2226 9.14131 38.3754 9.34399C38.5283 9.54668 38.7106 9.79731 38.9223 10.096L40.3157 11.968C40.4921 12.2133 40.6626 12.4373 40.8273 12.64C41.0036 12.8427 41.1918 13.0187 41.3917 13.168C41.5917 13.3067 41.815 13.4187 42.062 13.504C42.3207 13.5893 42.6264 13.632 42.9792 13.632C43.2379 13.632 43.4496 13.6213 43.6142 13.6C43.7789 13.5787 43.9435 13.5253 44.1081 13.44V12.848C44.0493 12.8587 43.9905 12.8693 43.9317 12.88C43.8729 12.88 43.8142 12.88 43.7553 12.88C43.5084 12.88 43.2908 12.848 43.1027 12.784C42.9146 12.72 42.7382 12.6293 42.5735 12.512C42.4089 12.384 42.2501 12.2347 42.0973 12.064C41.9444 11.8827 41.7857 11.68 41.621 11.456C41.1271 10.8053 40.745 10.288 40.4745 9.90399C40.204 9.50931 39.9865 9.20531 39.8218 8.99199C39.669 8.77868 39.5396 8.62399 39.4338 8.52799C39.3397 8.43199 39.2221 8.35199 39.081 8.28799L38.9046 8.20799V8.14399C39.4691 8.11199 39.9512 7.99999 40.351 7.80799C40.7626 7.61599 41.0978 7.37599 41.3564 7.08799C41.6151 6.79999 41.8033 6.49068 41.9209 6.15999C42.0385 5.81868 42.0973 5.48799 42.0973 5.16799C42.0973 4.87999 42.0326 4.56532 41.9032 4.22399C41.7857 3.88266 41.574 3.56799 41.2682 3.27999C40.9743 2.98132 40.5686 2.73599 40.0511 2.54399C39.5338 2.34132 38.8811 2.23999 38.0932 2.23999H34.0892ZM35.6943 2.94399H37.4759C37.9228 2.94399 38.3225 3.00266 38.6753 3.11999C39.0399 3.23732 39.3515 3.40266 39.6102 3.61599C39.8689 3.81866 40.0629 4.06399 40.1923 4.35199C40.3334 4.63999 40.4039 4.95466 40.4039 5.29599C40.4039 5.58399 40.3393 5.8773 40.2099 6.17599C40.0923 6.46399 39.91 6.73068 39.6631 6.97599C39.4161 7.21068 39.1104 7.40268 38.7459 7.55199C38.3931 7.7013 37.9815 7.77599 37.5111 7.77599H35.6943V2.94399ZM45.5153 7.83999C45.5153 8.43731 45.6387 9.07731 45.8857 9.75999C46.1443 10.432 46.5442 11.056 47.0851 11.632C47.626 12.208 48.3139 12.688 49.1489 13.072C49.9837 13.4453 50.9833 13.632 52.1475 13.632C52.9353 13.632 53.6468 13.5467 54.2818 13.376C54.9285 13.1947 55.5047 12.9547 56.0104 12.656C56.5278 12.3573 56.9746 12.016 57.3509 11.632C57.7272 11.2373 58.0329 10.8267 58.2682 10.4C58.5151 9.96268 58.6974 9.52531 58.815 9.08799C58.9443 8.65068 59.009 8.23468 59.009 7.83999C59.009 7.24268 58.8737 6.60799 58.6033 5.93599C58.3328 5.2533 57.9154 4.62399 57.3509 4.04799C56.7865 3.47199 56.0692 2.99732 55.199 2.62399C54.3406 2.23999 53.3233 2.04799 52.1475 2.04799C50.9833 2.04799 49.9837 2.23466 49.1489 2.60799C48.3139 2.98132 47.626 3.45599 47.0851 4.03199C46.5442 4.59732 46.1443 5.2213 45.8857 5.90399C45.6387 6.58668 45.5153 7.23199 45.5153 7.83999ZM47.2439 7.83999C47.2439 7.0933 47.3673 6.41068 47.6143 5.79199C47.8729 5.16268 48.2199 4.62399 48.655 4.17599C49.1018 3.72799 49.6251 3.38132 50.2248 3.13599C50.8246 2.87999 51.4772 2.75199 52.1827 2.75199C52.8765 2.75199 53.5292 2.87999 54.1407 3.13599C54.7639 3.38132 55.3048 3.72799 55.7634 4.17599C56.2338 4.62399 56.6042 5.16268 56.8747 5.79199C57.1451 6.41068 57.2804 7.0933 57.2804 7.83999C57.2804 8.58668 57.1451 9.27468 56.8747 9.90399C56.6042 10.5227 56.2338 11.056 55.7634 11.504C55.3048 11.952 54.7639 12.304 54.1407 12.56C53.5292 12.8053 52.8765 12.928 52.1827 12.928C51.4772 12.928 50.8246 12.8053 50.2248 12.56C49.6251 12.304 49.1018 11.952 48.655 11.504C48.2199 11.056 47.8729 10.5227 47.6143 9.90399C47.3673 9.27468 47.2439 8.58668 47.2439 7.83999ZM73.248 8.44799H69.7555V9.10399H71.731V12C71.2018 12.3093 70.6607 12.5387 70.1082 12.688C69.5551 12.8373 68.9264 12.912 68.2206 12.912C67.2917 12.912 66.4803 12.784 65.7864 12.528C65.0927 12.272 64.5164 11.92 64.0578 11.472C63.5992 11.0133 63.2523 10.4747 63.0171 9.85599C62.7937 9.22668 62.682 8.53868 62.682 7.79199C62.682 7.05599 62.7878 6.37868 62.9995 5.75999C63.2229 5.1413 63.5522 4.60799 63.9873 4.15999C64.4224 3.71199 64.9515 3.36532 65.5748 3.11999C66.2098 2.87466 66.9447 2.75199 67.7796 2.75199C68.3323 2.75199 68.8495 2.80532 69.3321 2.91199C69.814 3.01866 70.243 3.15732 70.6198 3.32799C70.9958 3.49866 71.3013 3.69599 71.537 3.91999C71.7839 4.13332 71.9427 4.35199 72.0132 4.57599H73.2832C73.1774 4.34132 72.9947 4.07999 72.7364 3.79199C72.4895 3.49332 72.148 3.21599 71.7134 2.95999C71.278 2.70399 70.7369 2.49066 70.0906 2.31999C69.4556 2.13866 68.7028 2.04799 67.8325 2.04799C66.833 2.04799 65.9099 2.17599 65.0632 2.43199C64.2283 2.68799 63.5052 3.05599 62.8936 3.53599C62.2822 4.01599 61.806 4.60799 61.4649 5.31199C61.1239 6.0053 60.9534 6.79468 60.9534 7.67999C60.9534 8.43731 61.0828 9.17331 61.3414 9.88799C61.6119 10.592 62.0176 11.2267 62.5585 11.792C63.1112 12.3467 63.8109 12.7947 64.6575 13.136C65.5042 13.4667 66.5155 13.632 67.6914 13.632C68.5736 13.632 69.3554 13.5467 70.0377 13.376C70.7192 13.1947 71.2837 12.9973 71.731 12.784V13.44H73.248V8.44799ZM83.2908 10.144L84.9842 13.44H86.6951L80.9449 2.23999H80.0629L74.8418 13.44H75.6532L77.2054 10.144H83.2908ZM82.9204 9.42399H77.5406L80.0806 4.03199H80.1511L82.9204 9.42399ZM91.7984 13.44V3.11999H96.5256V2.23999H85.4661V3.11999H90.1933V13.44H91.7984ZM99.7006 2.23999V13.44H101.306V2.23999H99.7006ZM104.659 2.23999L109.827 13.44H110.886L115.895 2.23999H114.978L110.868 11.456H110.798L106.564 2.23999H104.659ZM118.546 2.23999V13.44H126.519V12.56H120.151V7.87199H125.619V7.13599H120.151V3.11999H126.519V2.23999H118.546Z" fill="url(#paint0_linear)"/>
<path d="M53.6949 0.621504L53.5259 0L51.0291 0.736096L50.9824 1.28077L53.6949 0.621504Z" fill="#A78675"/>
<path d="M126.64 16H110.067L110.427 15.36L127 15.68L126.64 16Z" fill="url(#paint1_linear)"/>
<defs>
<linearGradient id="paint0_linear" x1="-2.11667" y1="4.28799" x2="145.574" y2="23.879" gradientUnits="userSpaceOnUse">
<stop offset="0.0322707" stop-color="#713516"/>
<stop offset="0.893441" stop-color="#886654"/>
</linearGradient>
<linearGradient id="paint1_linear" x1="110.772" y1="15.36" x2="127.353" y2="15.36" gradientUnits="userSpaceOnUse">
<stop stop-color="#AF988B"/>
<stop offset="1" stop-color="#AF988B" stop-opacity="0.54"/>
</linearGradient>
</defs>
</svg>
