<svg width="129" height="19" viewBox="0 0 129 19" fill="none" xmlns="http://www.w3.org/2000/svg">
<path opacity="0.66" d="M3.70685 10.0931C4.01137 10.1688 4.3393 10.2336 4.69066 10.2877C5.04203 10.3309 5.42852 10.3526 5.85016 10.3526C6.56458 10.3526 7.19703 10.2607 7.74751 10.0769C8.298 9.89302 8.75477 9.64435 9.11782 9.33076C9.49263 9.00637 9.77372 8.63874 9.96109 8.22783C10.1485 7.80613 10.2422 7.3574 10.2422 6.88162C10.2422 6.42747 10.1602 5.99496 9.99623 5.58405C9.83224 5.16235 9.58047 4.8001 9.2408 4.49735C8.91288 4.18377 8.49707 3.93507 7.99347 3.75125C7.48986 3.56743 6.89837 3.47552 6.21909 3.47552H2.10815V14.8292H3.70685V10.0931ZM3.70685 4.18918H5.5515C6.04341 4.18918 6.47674 4.27027 6.85154 4.43247C7.22634 4.59466 7.5367 4.81094 7.78265 5.08125C8.0286 5.34076 8.21016 5.63814 8.32726 5.97332C8.45611 6.29771 8.52051 6.6221 8.52051 6.94649C8.52051 7.26009 8.46193 7.57905 8.34483 7.90344C8.23942 8.21704 8.06374 8.50357 7.81778 8.76308C7.57183 9.02259 7.26148 9.23344 6.88668 9.39564C6.51187 9.55783 6.06097 9.63893 5.53393 9.63893C5.17088 9.63893 4.83707 9.62813 4.53255 9.60649C4.22804 9.57405 3.9528 9.5146 3.70685 9.42808V4.18918ZM12.8823 3.47552V14.8292H14.481V9.81735H15.254C15.582 9.81735 15.8513 9.84436 16.0621 9.89844C16.2847 9.95253 16.4838 10.0444 16.6595 10.1742C16.8351 10.3039 16.9991 10.4715 17.1514 10.677C17.3036 10.8824 17.4852 11.1365 17.696 11.4393L19.0838 13.337C19.2595 13.5857 19.4294 13.8128 19.5933 14.0182C19.769 14.2236 19.9564 14.402 20.1555 14.5534C20.3546 14.694 20.5771 14.8075 20.8231 14.8941C21.0808 14.9806 21.3853 15.0238 21.7366 15.0238C21.9943 15.0238 22.2051 15.013 22.3691 14.9914C22.5331 14.9697 22.6971 14.9157 22.861 14.8292V14.2291C22.8025 14.2399 22.7439 14.2507 22.6853 14.2615C22.6268 14.2615 22.5682 14.2615 22.5096 14.2615C22.2637 14.2615 22.047 14.2291 21.8596 14.1642C21.6722 14.0993 21.4966 14.0074 21.3326 13.8884C21.1686 13.7587 21.0105 13.6073 20.8582 13.4343C20.706 13.2505 20.5479 13.045 20.3839 12.818C19.892 12.1584 19.5114 11.6339 19.242 11.2447C18.9726 10.8446 18.7559 10.5364 18.5919 10.3202C18.4397 10.1039 18.3109 9.9471 18.2054 9.84979C18.1118 9.75247 17.9946 9.67137 17.8541 9.60649L17.6784 9.5254V9.46052C18.2406 9.42808 18.7208 9.31454 19.119 9.11991C19.5289 8.92527 19.8627 8.68198 20.1204 8.39003C20.3781 8.09808 20.5654 7.78449 20.6825 7.4493C20.7997 7.10327 20.8582 6.76808 20.8582 6.44369C20.8582 6.15174 20.7938 5.83277 20.665 5.48674C20.5479 5.14071 20.3371 4.82174 20.0325 4.52979C19.7397 4.22702 19.3357 3.97832 18.8203 3.78369C18.305 3.57824 17.655 3.47552 16.8703 3.47552H12.8823ZM14.481 4.18918H16.2554C16.7005 4.18918 17.0987 4.24865 17.45 4.36759C17.8131 4.48654 18.1235 4.65412 18.3811 4.8704C18.6388 5.07583 18.8321 5.32454 18.9609 5.61649C19.1014 5.90844 19.1717 6.22741 19.1717 6.57344C19.1717 6.8654 19.1073 7.16277 18.9784 7.46552C18.8613 7.75747 18.6798 8.02778 18.4338 8.27649C18.1879 8.51436 17.8834 8.709 17.5203 8.8604C17.1689 9.01179 16.759 9.08747 16.2905 9.08747H14.481V4.18918ZM25.4922 3.47552V14.8292H33.433V13.9371H27.0909V9.18479H32.537V8.43869H27.0909V4.36759H33.433V3.47552H25.4922ZM36.0606 3.47552V14.8292H37.6593V9.81735H38.4322C38.7602 9.81735 39.0296 9.84436 39.2404 9.89844C39.4629 9.95253 39.662 10.0444 39.8377 10.1742C40.0134 10.3039 40.1774 10.4715 40.3296 10.677C40.4818 10.8824 40.6634 11.1365 40.8742 11.4393L42.2621 13.337C42.4378 13.5857 42.6076 13.8128 42.7716 14.0182C42.9472 14.2236 43.1346 14.402 43.3337 14.5534C43.5329 14.694 43.7554 14.8075 44.0013 14.8941C44.259 14.9806 44.5635 15.0238 44.9149 15.0238C45.1725 15.0238 45.3833 15.013 45.5473 14.9914C45.7113 14.9697 45.8752 14.9157 46.0392 14.8292V14.2291C45.9807 14.2399 45.9221 14.2507 45.8635 14.2615C45.805 14.2615 45.7464 14.2615 45.6879 14.2615C45.4419 14.2615 45.2252 14.2291 45.0378 14.1642C44.8505 14.0993 44.6748 14.0074 44.5108 13.8884C44.3468 13.7587 44.1887 13.6073 44.0365 13.4343C43.8842 13.2505 43.7261 13.045 43.5621 12.818C43.0702 12.1584 42.6896 11.6339 42.4202 11.2447C42.1508 10.8446 41.9342 10.5364 41.7702 10.3202C41.6179 10.1039 41.4891 9.9471 41.3837 9.84979C41.29 9.75247 41.1729 9.67137 41.0323 9.60649L40.8566 9.5254V9.46052C41.4188 9.42808 41.899 9.31454 42.2972 9.11991C42.7072 8.92527 43.041 8.68198 43.2986 8.39003C43.5563 8.09808 43.7437 7.78449 43.8608 7.4493C43.9779 7.10327 44.0365 6.76808 44.0365 6.44369C44.0365 6.15174 43.9721 5.83277 43.8432 5.48674C43.7261 5.14071 43.5153 4.82174 43.2108 4.52979C42.918 4.22702 42.5139 3.97832 41.9986 3.78369C41.4832 3.57824 40.8332 3.47552 40.0485 3.47552H36.0606ZM37.6593 4.18918H39.4336C39.8787 4.18918 40.2769 4.24865 40.6283 4.36759C40.9913 4.48654 41.3017 4.65412 41.5594 4.8704C41.817 5.07583 42.0103 5.32454 42.1391 5.61649C42.2797 5.90844 42.3499 6.22741 42.3499 6.57344C42.3499 6.8654 42.2855 7.16277 42.1567 7.46552C42.0396 7.75747 41.858 8.02778 41.6121 8.27649C41.3661 8.51436 41.0616 8.709 40.6985 8.8604C40.3472 9.01179 39.9372 9.08747 39.4688 9.08747H37.6593V4.18918ZM47.4407 9.15235C47.4407 9.75789 47.5637 10.4067 47.8096 11.0987C48.0673 11.7799 48.4655 12.4125 49.0043 12.9964C49.543 13.5803 50.2282 14.0669 51.0599 14.4561C51.8911 14.8346 52.887 15.0238 54.0465 15.0238C54.831 15.0238 55.5397 14.9373 56.1722 14.7643C56.8162 14.5805 57.3899 14.3372 57.8939 14.0344C58.4089 13.7317 58.8541 13.3856 59.229 12.9964C59.6035 12.5963 59.9082 12.18 60.1426 11.7475C60.3885 11.3041 60.5697 10.8608 60.6872 10.4175C60.8157 9.97412 60.8805 9.55241 60.8805 9.15235C60.8805 8.5468 60.7454 7.90344 60.4764 7.22223C60.2068 6.53021 59.7912 5.89223 59.229 5.30832C58.6669 4.72442 57.9521 4.24324 57.0857 3.86479C56.2304 3.47552 55.2175 3.28088 54.0465 3.28088C52.887 3.28088 51.8911 3.47011 51.0599 3.84857C50.2282 4.22702 49.543 4.7082 49.0043 5.2921C48.4655 5.86521 48.0673 6.49777 47.8096 7.18979C47.5637 7.8818 47.4407 8.53601 47.4407 9.15235ZM49.1624 9.15235C49.1624 8.39545 49.2854 7.70339 49.5313 7.07625C49.789 6.43827 50.1345 5.89223 50.568 5.43808C51.0127 4.98393 51.5342 4.63251 52.1315 4.38381C52.7289 4.1243 53.3789 3.99454 54.0816 3.99454C54.7723 3.99454 55.4223 4.1243 56.0317 4.38381C56.6521 4.63251 57.1912 4.98393 57.6479 5.43808C58.1162 5.89223 58.4852 6.43827 58.7547 7.07625C59.0238 7.70339 59.1588 8.39545 59.1588 9.15235C59.1588 9.90924 59.0238 10.6067 58.7547 11.2447C58.4852 11.8718 58.1162 12.4125 57.6479 12.8666C57.1912 13.3208 56.6521 13.6776 56.0317 13.9371C55.4223 14.1858 54.7723 14.3102 54.0816 14.3102C53.3789 14.3102 52.7289 14.1858 52.1315 13.9371C51.5342 13.6776 51.0127 13.3208 50.568 12.8666C50.1345 12.4125 49.789 11.8718 49.5313 11.2447C49.2854 10.6067 49.1624 9.90924 49.1624 9.15235ZM75.0619 9.76869H71.5834V10.4337H73.5511V13.3694C73.024 13.683 72.4854 13.9155 71.9348 14.0669C71.3842 14.2183 70.7577 14.2939 70.055 14.2939C69.1299 14.2939 68.3218 14.1642 67.6306 13.9047C66.9394 13.6452 66.3657 13.2883 65.9089 12.8342C65.4522 12.3692 65.1068 11.8231 64.8724 11.196C64.6501 10.558 64.5386 9.86058 64.5386 9.10369C64.5386 8.35759 64.644 7.67095 64.8549 7.04381C65.0772 6.41667 65.4055 5.87601 65.8387 5.42186C66.2719 4.96771 66.7989 4.61629 67.4198 4.36759C68.0522 4.11889 68.7841 3.99454 69.6158 3.99454C70.1664 3.99454 70.6814 4.04861 71.1618 4.15674C71.6422 4.26487 72.0693 4.40544 72.4443 4.57844C72.8192 4.75144 73.1234 4.95149 73.3578 5.17857C73.6038 5.39484 73.7619 5.61649 73.8321 5.84357H75.0971C74.9916 5.6057 74.8099 5.34076 74.5524 5.04881C74.3065 4.74606 73.9667 4.46491 73.5335 4.2054C73.1003 3.94588 72.5612 3.72962 71.9172 3.55662C71.2848 3.37279 70.5354 3.28088 69.6685 3.28088C68.6732 3.28088 67.7536 3.41064 66.9103 3.67015C66.0786 3.92966 65.3583 4.30271 64.7494 4.7893C64.1406 5.27588 63.6663 5.87601 63.3264 6.58966C62.9866 7.29253 62.817 8.09266 62.817 8.99015C62.817 9.75789 62.946 10.504 63.2035 11.2284C63.473 11.9421 63.8771 12.5855 64.4157 13.1586C64.9663 13.7208 65.663 14.175 66.5063 14.521C67.3495 14.8562 68.3569 15.0238 69.528 15.0238C70.4064 15.0238 71.1854 14.9373 71.8645 14.7643C72.5437 14.5805 73.1058 14.3805 73.5511 14.1642V14.8292H75.0619V9.76869ZM85.0647 11.488L86.7512 14.8292H88.4553L82.7281 3.47552H81.8497L76.6496 14.8292H77.4577L79.0037 11.488H85.0647ZM84.6958 10.7581H79.3375L81.8673 5.2921H81.9376L84.6958 10.7581ZM93.538 14.8292V4.36759H98.2463V3.47552H87.2311V4.36759H91.9393V14.8292H93.538ZM101.409 3.47552V14.8292H103.007V3.47552H101.409ZM106.347 3.47552L111.495 14.8292H112.549L117.538 3.47552H116.625L112.531 12.818H112.461L108.245 3.47552H106.347ZM120.178 3.47552V14.8292H128.119V13.9371H121.777V9.18479H127.223V8.43869H121.777V4.36759H128.119V3.47552H120.178Z" fill="url(#paint0_linear)"/>
<path d="M55.2658 1.84016L55.1458 1.39014L53.3694 1.92313L53.3363 2.31753L55.2658 1.84016Z" fill="#876E60"/>
<path d="M128.135 17.1465H111.432L111.795 16.6831L128.498 16.9148L128.135 17.1465Z" fill="url(#paint1_linear)"/>
<defs>
<linearGradient id="paint0_linear" x1="-83.9906" y1="-4.1372" x2="145.48" y2="32.1444" gradientUnits="userSpaceOnUse">
<stop offset="0.397619" stop-color="#886654"/>
<stop offset="1" stop-color="#FFEDE3"/>
</linearGradient>
<linearGradient id="paint1_linear" x1="112.143" y1="16.6831" x2="128.853" y2="16.6831" gradientUnits="userSpaceOnUse">
<stop stop-color="#B39D93"/>
<stop offset="1" stop-color="#B39E93" stop-opacity="0.37"/>
</linearGradient>
</defs>
</svg>
