<svg width="127" height="16" viewBox="0 0 127 16" fill="none" xmlns="http://www.w3.org/2000/svg">
<path opacity="0.66" d="M1.60641 8.83754C1.9124 8.91441 2.24191 8.98021 2.59497 9.03514C2.94803 9.07901 3.33639 9.10105 3.76006 9.10105C4.47793 9.10105 5.11343 9.00773 5.66657 8.82109C6.21971 8.63436 6.67869 8.38185 7.04349 8.06341C7.42011 7.734 7.70255 7.36069 7.89083 6.94342C8.07914 6.5152 8.17329 6.05954 8.17329 5.5764C8.17329 5.11523 8.0909 4.67603 7.92614 4.25877C7.76136 3.83055 7.50837 3.46269 7.16706 3.15526C6.83756 2.83683 6.41974 2.58429 5.91371 2.39763C5.40767 2.21096 4.81333 2.11763 4.13077 2.11763H0V13.6469H1.60641V8.83754ZM1.60641 2.84233H3.45996C3.95425 2.84233 4.38967 2.92467 4.76627 3.08938C5.14288 3.25408 5.45474 3.4737 5.70188 3.74819C5.94901 4.01171 6.13145 4.31369 6.24911 4.65405C6.37859 4.98346 6.4433 5.31287 6.4433 5.64227C6.4433 5.96072 6.38443 6.28461 6.26677 6.61402C6.16085 6.93247 5.98432 7.22343 5.73718 7.48695C5.49004 7.75047 5.17819 7.96458 4.80158 8.12929C4.42497 8.29399 3.97189 8.37634 3.44231 8.37634C3.07751 8.37634 2.74209 8.36538 2.4361 8.3434C2.13012 8.31046 1.85355 8.25009 1.60641 8.16223V2.84233ZM10.8261 2.11763V13.6469H12.4325V8.55752H13.2093C13.5389 8.55752 13.8095 8.58495 14.0213 8.63987C14.2449 8.69479 14.445 8.78808 14.6216 8.91989C14.798 9.0516 14.9628 9.22179 15.1158 9.43046C15.2688 9.63904 15.4512 9.89707 15.6631 10.2046L17.0575 12.1316C17.2341 12.3841 17.4048 12.6148 17.5695 12.8233C17.7461 13.0319 17.9344 13.2131 18.1344 13.3668C18.3345 13.5096 18.5581 13.6248 18.8052 13.7128C19.0642 13.8006 19.3702 13.8445 19.7231 13.8445C19.9821 13.8445 20.1939 13.8335 20.3587 13.8116C20.5235 13.7895 20.6883 13.7347 20.853 13.6469V13.0375C20.7942 13.0485 20.7353 13.0594 20.6764 13.0704C20.6176 13.0704 20.5588 13.0704 20.4999 13.0704C20.2528 13.0704 20.035 13.0375 19.8467 12.9716C19.6584 12.9057 19.482 12.8124 19.3172 12.6915C19.1524 12.5598 18.9935 12.4061 18.8405 12.2304C18.6876 12.0438 18.5287 11.8351 18.3639 11.6046C17.8696 10.9348 17.4872 10.4022 17.2165 10.0069C16.9458 9.60066 16.7281 9.28769 16.5633 9.06815C16.4103 8.8485 16.2809 8.68928 16.1749 8.59046C16.0809 8.49164 15.9631 8.40929 15.8219 8.3434L15.6454 8.26106V8.19517C16.2103 8.16223 16.6928 8.04694 17.0929 7.8493C17.5048 7.65165 17.8402 7.4046 18.0991 7.10813C18.3581 6.81167 18.5463 6.49323 18.664 6.15286C18.7817 5.80148 18.8405 5.4611 18.8405 5.1317C18.8405 4.83523 18.7758 4.51133 18.6464 4.15995C18.5287 3.80857 18.3169 3.48467 18.0108 3.1882C17.7166 2.88075 17.3107 2.62821 16.7928 2.43057C16.275 2.22194 15.6219 2.11763 14.8334 2.11763H10.8261ZM12.4325 2.84233H14.2155C14.6628 2.84233 15.0629 2.90272 15.4159 3.0235C15.7807 3.14429 16.0926 3.31446 16.3515 3.53408C16.6104 3.74269 16.8046 3.99524 16.9341 4.29171C17.0752 4.58817 17.1459 4.91207 17.1459 5.26345C17.1459 5.55993 17.0812 5.8619 16.9516 6.16933C16.834 6.46579 16.6516 6.74028 16.4044 6.99284C16.1573 7.23439 15.8514 7.43203 15.4865 7.58578C15.1334 7.73951 14.7215 7.81636 14.2508 7.81636H12.4325V2.84233ZM23.4969 2.11763V13.6469H31.476V12.741H25.1033V7.91518H30.5757V7.15755H25.1033V3.0235H31.476V2.11763H23.4969ZM34.1163 2.11763V13.6469H35.7227V8.55752H36.4993C36.8289 8.55752 37.0996 8.58495 37.3114 8.63987C37.535 8.69479 37.735 8.78808 37.9116 8.91989C38.0881 9.0516 38.2529 9.22179 38.4059 9.43046C38.5588 9.63904 38.7413 9.89707 38.9531 10.2046L40.3477 12.1316C40.5242 12.3841 40.6948 12.6148 40.8596 12.8233C41.0361 13.0319 41.2244 13.2131 41.4244 13.3668C41.6246 13.5096 41.8482 13.6248 42.0953 13.7128C42.3542 13.8006 42.6602 13.8445 43.0133 13.8445C43.2721 13.8445 43.4839 13.8335 43.6487 13.8116C43.8135 13.7895 43.9782 13.7347 44.143 13.6469V13.0375C44.0842 13.0485 44.0253 13.0594 43.9664 13.0704C43.9077 13.0704 43.8488 13.0704 43.79 13.0704C43.5428 13.0704 43.3251 13.0375 43.1368 12.9716C42.9486 12.9057 42.772 12.8124 42.6072 12.6915C42.4424 12.5598 42.2836 12.4061 42.1306 12.2304C41.9776 12.0438 41.8187 11.8351 41.6539 11.6046C41.1597 10.9348 40.7772 10.4022 40.5065 10.0069C40.2358 9.60066 40.0182 9.28769 39.8534 9.06815C39.7004 8.8485 39.5709 8.68928 39.465 8.59046C39.3709 8.49164 39.2532 8.40929 39.1119 8.3434L38.9354 8.26106V8.19517C39.5003 8.16223 39.9828 8.04694 40.3829 7.8493C40.7949 7.65165 41.1303 7.4046 41.3892 7.10813C41.6481 6.81167 41.8364 6.49323 41.9541 6.15286C42.0718 5.80148 42.1306 5.4611 42.1306 5.1317C42.1306 4.83523 42.0659 4.51133 41.9364 4.15995C41.8187 3.80857 41.6069 3.48467 41.301 3.1882C41.0067 2.88075 40.6007 2.62821 40.0829 2.43057C39.565 2.22194 38.9119 2.11763 38.1234 2.11763H34.1163ZM35.7227 2.84233H37.5055C37.9528 2.84233 38.3529 2.90272 38.706 3.0235C39.0707 3.14429 39.3826 3.31446 39.6416 3.53408C39.9004 3.74269 40.0947 3.99524 40.2241 4.29171C40.3654 4.58817 40.4359 4.91207 40.4359 5.26345C40.4359 5.55993 40.3712 5.8619 40.2418 6.16933C40.1241 6.46579 39.9416 6.74028 39.6945 6.99284C39.4473 7.23439 39.1414 7.43203 38.7765 7.58578C38.4235 7.73951 38.0116 7.81636 37.5409 7.81636H35.7227V2.84233ZM45.5513 7.88224C45.5513 8.49714 45.6749 9.15598 45.9219 9.85868C46.1809 10.5504 46.581 11.1928 47.1224 11.7857C47.6637 12.3787 48.3522 12.8728 49.1879 13.268C50.0231 13.6524 51.0238 13.8445 52.1889 13.8445C52.9772 13.8445 53.6893 13.7566 54.3249 13.581C54.972 13.3943 55.5485 13.1473 56.0549 12.8398C56.5724 12.5324 57.0197 12.1809 57.3964 11.7857C57.7727 11.3794 58.0789 10.9567 58.3144 10.5175C58.5615 10.0673 58.7436 9.61711 58.8617 9.16695C58.9908 8.71672 59.0559 8.28849 59.0559 7.88224C59.0559 7.26733 58.9201 6.61402 58.6498 5.92228C58.3789 5.21956 57.9613 4.57171 57.3964 3.97877C56.8316 3.38584 56.1134 2.89722 55.2428 2.51292C54.3834 2.11763 53.3656 1.91998 52.1889 1.91998C51.0238 1.91998 50.0231 2.11214 49.1879 2.49645C48.3522 2.88075 47.6637 3.36937 47.1224 3.9623C46.581 4.54427 46.1809 5.18661 45.9219 5.88933C45.6749 6.59204 45.5513 7.25637 45.5513 7.88224ZM47.2813 7.88224C47.2813 7.11364 47.4049 6.41088 47.6519 5.77404C47.9109 5.12619 48.2581 4.57171 48.6936 4.11054C49.1405 3.64937 49.6645 3.29251 50.2647 3.03997C50.865 2.77644 51.5181 2.64468 52.2242 2.64468C52.9182 2.64468 53.5714 2.77644 54.1837 3.03997C54.8071 3.29251 55.3488 3.64937 55.8077 4.11054C56.2783 4.57171 56.649 5.12619 56.9198 5.77404C57.1902 6.41088 57.3259 7.11364 57.3259 7.88224C57.3259 8.65083 57.1902 9.35908 56.9198 10.0069C56.649 10.6437 56.2783 11.1928 55.8077 11.6539C55.3488 12.1151 54.8071 12.4775 54.1837 12.741C53.5714 12.9935 52.9182 13.1198 52.2242 13.1198C51.5181 13.1198 50.865 12.9935 50.2647 12.741C49.6645 12.4775 49.1405 12.1151 48.6936 11.6539C48.2581 11.1928 47.9109 10.6437 47.6519 10.0069C47.4049 9.35908 47.2813 8.65083 47.2813 7.88224ZM73.3057 8.50811H69.8104V9.1834H71.7876V12.1645C71.258 12.4829 70.7168 12.719 70.1635 12.8728C69.6103 13.0265 68.9808 13.1033 68.2747 13.1033C67.3451 13.1033 66.5331 12.9716 65.8386 12.7081C65.144 12.4446 64.5676 12.0821 64.1086 11.621C63.6497 11.1488 63.3026 10.5943 63.0671 9.95749C62.8437 9.30962 62.7316 8.60142 62.7316 7.83283C62.7316 7.07519 62.8376 6.37793 63.0495 5.7411C63.2728 5.10426 63.6027 4.55524 64.038 4.09407C64.4733 3.6329 65.0029 3.27604 65.6268 3.0235C66.2622 2.77095 66.9976 2.64468 67.8333 2.64468C68.3866 2.64468 68.9041 2.69958 69.3868 2.80939C69.8695 2.91919 70.2987 3.06193 70.6755 3.23761C71.0522 3.41328 71.3579 3.61642 71.5934 3.84702C71.8406 4.06663 71.9994 4.29171 72.07 4.5223H73.3411C73.2351 4.28075 73.0525 4.01171 72.7938 3.71525C72.5467 3.40782 72.2052 3.12232 71.7699 2.8588C71.3347 2.59527 70.793 2.37566 70.1458 2.19999C69.5104 2.01331 68.7574 1.91998 67.8863 1.91998C66.8862 1.91998 65.9622 2.05175 65.1148 2.31527C64.2791 2.57879 63.5553 2.95761 62.9435 3.45173C62.3317 3.94583 61.8551 4.55524 61.5136 5.27992C61.1722 5.99366 61.0017 6.80617 61.0017 7.71753C61.0017 8.49714 61.1314 9.25479 61.3901 9.99039C61.6609 10.7151 62.067 11.3685 62.6082 11.9504C63.1614 12.5213 63.8615 12.9826 64.7088 13.3339C65.5561 13.6743 66.5684 13.8445 67.7451 13.8445C68.6278 13.8445 69.4105 13.7566 70.0929 13.581C70.7754 13.3943 71.3402 13.1912 71.7876 12.9716V13.6469H73.3057V8.50811ZM83.3568 10.254L85.0514 13.6469H86.7637L81.0089 2.11763H80.1263L74.9011 13.6469H75.7131L77.2665 10.254H83.3568ZM82.9861 9.51282H77.6019L80.144 3.9623H80.2146L82.9861 9.51282ZM91.871 13.6469V3.0235H96.602V2.11763H85.5336V3.0235H90.2645V13.6469H91.871ZM99.7799 2.11763V13.6469H101.386V2.11763H99.7799ZM104.742 2.11763L109.915 13.6469H110.974L115.987 2.11763H115.069L110.956 11.6046H110.885L106.649 2.11763H104.742ZM118.639 2.11763V13.6469H126.619V12.741H120.246V7.91518H125.718V7.15755H120.246V3.0235H126.619V2.11763H118.639Z" fill="url(#paint0_linear)"/>
<path d="M53.4144 0.456978L53.2938 0L51.5088 0.541231L51.4756 0.94173L53.4144 0.456978Z" fill="#876E60"/>
<path d="M126.635 16H109.852L110.216 15.5294L127 15.7647L126.635 16Z" fill="url(#paint1_linear)"/>
<defs>
<linearGradient id="paint0_linear" x1="-86.5141" y1="-5.6128" x2="144.181" y2="30.4803" gradientUnits="userSpaceOnUse">
<stop offset="0.397619" stop-color="#886654"/>
<stop offset="1" stop-color="#FFEDE3"/>
</linearGradient>
<linearGradient id="paint1_linear" x1="110.566" y1="15.5294" x2="127.357" y2="15.5294" gradientUnits="userSpaceOnUse">
<stop stop-color="#B39D93"/>
<stop offset="1" stop-color="#B39E93" stop-opacity="0.37"/>
</linearGradient>
</defs>
</svg>
